<svg preserveAspectRatio="none" width="100%" height="100%" overflow="visible" style="display: block;" viewBox="0 0 20.1502 19.5" fill="none" xmlns="http://www.w3.org/2000/svg">
<g id="icon">
<path fill-rule="evenodd" clip-rule="evenodd" d="M13.2581 0.581428C13.2456 4.05791 11.572 5.67363 8.10842 5.72265C7.33492 5.73359 7.34388 6.89086 8.11745 6.88984C11.6722 6.88515 13.2231 8.56329 13.2582 12.0335C13.2658 12.7886 14.3876 12.811 14.4252 12.0567C14.6006 8.54787 16.2399 6.87718 19.5641 6.88983C20.3354 6.89277 20.3506 5.74011 19.5795 5.72273C16.0186 5.64251 14.4127 3.97451 14.426 0.585823C14.4288 -0.192339 13.2612 -0.196733 13.2581 0.581428ZM13.8361 3.74249L13.9146 3.91356C14.4256 4.96509 15.2338 5.7471 16.3375 6.24546L16.4731 6.30344L16.4284 6.32387C15.3394 6.82763 14.5259 7.64406 13.9935 8.75862L13.8922 8.97994L13.8691 8.92177C13.3891 7.76564 12.596 6.91022 11.48 6.37627L11.2786 6.28476C12.3668 5.80572 13.178 5.05037 13.7048 4.01917L13.8361 3.74249Z" fill="var(--fill-0, #534B32)"/>
<path d="M1.3 10.5716C1.3 6.35825 4.71731 2.94263 8.93277 2.94263C9.29175 2.94263 9.58277 2.65176 9.58277 2.29295C9.58277 1.93414 9.29175 1.64327 8.93277 1.64327C3.99934 1.64327 0 5.64064 0 10.5716C0 14.3802 2.38558 17.6303 5.74243 18.9135C6.07773 19.0417 6.4535 18.874 6.58175 18.5388C6.70999 18.2037 6.54214 17.8281 6.20684 17.6999C3.33654 16.6027 1.3 13.824 1.3 10.5716Z" fill="var(--fill-0, #534B32)"/>
<path d="M12.179 17.5377C12.4338 17.5351 12.6772 17.6833 12.7836 17.9321C12.9247 18.2621 12.7715 18.6438 12.4414 18.7849C11.374 19.2409 10.2003 19.495 8.96934 19.4999L8.93277 19.5C8.57378 19.5 8.28277 19.2091 8.28277 18.8503C8.28277 18.4915 8.57378 18.2006 8.93277 18.2006L8.96411 18.2006C10.0179 18.1964 11.0198 17.979 11.9301 17.5901C12.0114 17.5554 12.0958 17.5385 12.179 17.5377Z" fill="var(--fill-0, #534B32)"/>
<path d="M16.9329 12.8208C17.2698 12.9447 17.4424 13.3182 17.3185 13.6549C16.9585 14.6326 16.4326 15.5295 15.7752 16.3116C15.5443 16.5863 15.1343 16.6219 14.8594 16.3911C14.5846 16.1603 14.549 15.7505 14.7799 15.4758C15.3421 14.8068 15.7913 14.0405 16.0984 13.2062C16.2224 12.8694 16.596 12.6969 16.9329 12.8208Z" fill="var(--fill-0, #534B32)"/>
</g>
</svg>
