<svg preserveAspectRatio="none" width="100%" height="100%" overflow="visible" style="display: block;" viewBox="0 0 20.8 20.8" fill="none" xmlns="http://www.w3.org/2000/svg">
<g id="icon">
<path fill-rule="evenodd" clip-rule="evenodd" d="M15.275 0C16.5314 0 17.55 1.01854 17.55 2.275C17.55 3.53144 16.5314 4.55 15.275 4.55C14.0186 4.55 13 3.53144 13 2.275C13 1.01854 14.0186 0 15.275 0ZM16.25 2.275C16.25 1.73652 15.8135 1.3 15.275 1.3C14.7365 1.3 14.3 1.73652 14.3 2.275C14.3 2.81347 14.7365 3.25 15.275 3.25C15.8135 3.25 16.25 2.81347 16.25 2.275Z" fill="var(--fill-0, #534B32)"/>
<path fill-rule="evenodd" clip-rule="evenodd" d="M0 7.79996C0 4.21016 2.9101 1.3 6.5 1.3C10.0899 1.3 13 4.21016 13 7.79996C13 11.3899 10.0899 14.3 6.5 14.3C2.91009 14.3 0 11.3899 0 7.79996ZM6.5 2.6C3.62807 2.6 1.3 4.92813 1.3 7.79996C1.3 10.6719 3.62807 13 6.5 13C9.37193 13 11.7 10.6719 11.7 7.79996C11.7 4.92813 9.37193 2.6 6.5 2.6Z" fill="var(--fill-0, #534B32)"/>
<path fill-rule="evenodd" clip-rule="evenodd" d="M6.5 17.55C6.5 15.7551 7.95513 14.3 9.75 14.3C11.5449 14.3 13 15.7551 13 17.55C13 19.3449 11.5449 20.8 9.75 20.8C7.95513 20.8 6.5 19.3449 6.5 17.55ZM9.75 15.6C8.67308 15.6 7.8 16.4731 7.8 17.55C7.8 18.6269 8.67308 19.5 9.75 19.5C10.8269 19.5 11.7 18.6269 11.7 17.55C11.7 16.4731 10.8269 15.6 9.75 15.6Z" fill="var(--fill-0, #534B32)"/>
<path fill-rule="evenodd" clip-rule="evenodd" d="M16.9 9.1C14.7461 9.1 13 10.8461 13 13C13 15.1539 14.7461 16.9 16.9 16.9C19.0539 16.9 20.8 15.1539 20.8 13C20.8 10.8461 19.0539 9.1 16.9 9.1ZM14.3 13C14.3 11.5641 15.4641 10.4 16.9 10.4C18.3359 10.4 19.5 11.5641 19.5 13C19.5 14.4359 18.3359 15.6 16.9 15.6C15.4641 15.6 14.3 14.4359 14.3 13Z" fill="var(--fill-0, #534B32)"/>
<path fill-rule="evenodd" clip-rule="evenodd" d="M4.55 17.875C4.55 16.6185 3.53144 15.6 2.275 15.6C1.01856 15.6 0 16.6185 0 17.875C0 19.1314 1.01856 20.15 2.275 20.15C3.53144 20.15 4.55 19.1314 4.55 17.875ZM2.275 16.9C2.81348 16.9 3.25 17.3365 3.25 17.875C3.25 18.4135 2.81347 18.85 2.275 18.85C1.73653 18.85 1.3 18.4135 1.3 17.875C1.3 17.3365 1.73652 16.9 2.275 16.9Z" fill="var(--fill-0, #534B32)"/>
</g>
</svg>
